<svg width="25" height="25" viewBox="0 0 25 25" fill="none" xmlns="http://www.w3.org/2000/svg">
<path d="M17.2852 11.6035C17.9852 11.6035 18.6552 11.7035 19.2852 11.8935V10.6035C19.2852 9.50352 18.3852 8.60352 17.2852 8.60352H16.2852V6.60352C16.2852 3.84352 14.0452 1.60352 11.2852 1.60352C8.52516 1.60352 6.28516 3.84352 6.28516 6.60352V8.60352H5.28516C4.18516 8.60352 3.28516 9.50352 3.28516 10.6035V20.6035C3.28516 21.7035 4.18516 22.6035 5.28516 22.6035H11.5452C10.7552 21.4735 10.2852 20.0935 10.2852 18.6035C10.2852 14.7335 13.4152 11.6035 17.2852 11.6035ZM8.18516 6.60352C8.18516 4.89352 9.57516 3.50352 11.2852 3.50352C12.9952 3.50352 14.3852 4.89352 14.3852 6.60352V8.60352H8.18516V6.60352Z" fill="#E3E4E5"/>
<path d="M17.2852 13.6035C14.5252 13.6035 12.2852 15.8435 12.2852 18.6035C12.2852 21.3635 14.5252 23.6035 17.2852 23.6035C20.0452 23.6035 22.2852 21.3635 22.2852 18.6035C22.2852 15.8435 20.0452 13.6035 17.2852 13.6035ZM17.2852 15.6035C18.1152 15.6035 18.7852 16.2735 18.7852 17.1035C18.7852 17.9335 18.1152 18.6035 17.2852 18.6035C16.4552 18.6035 15.7852 17.9335 15.7852 17.1035C15.7852 16.2735 16.4552 15.6035 17.2852 15.6035ZM17.2852 21.6035C16.2552 21.6035 15.3452 21.0835 14.8052 20.2835C15.5352 19.8635 16.3752 19.6035 17.2852 19.6035C18.1952 19.6035 19.0352 19.8635 19.7652 20.2835C19.2252 21.0835 18.3152 21.6035 17.2852 21.6035Z" fill="#E3E4E5"/>
</svg>
