<svg width="33" height="32" viewBox="0 0 33 32" fill="none" xmlns="http://www.w3.org/2000/svg">
    <g clip-path="url(#clip0_4974_51952)">
        <rect width="32" height="32" transform="translate(0.00390625)" fill="url(#paint0_linear_4974_51952)"/>
    </g>
    <path fill-rule="evenodd" clip-rule="evenodd" d="M19.4687 13.7422L25.8662 13.2701C26.2885 13.2389 26.5544 13.7343 26.3075 14.0923L21.8321 20.5816C21.7383 20.7177 21.5872 20.7984 21.4262 20.7984H11.3903C11.2296 20.7984 11.0787 20.718 10.9848 20.5821L6.49758 14.0928C6.25009 13.7349 6.51597 13.2388 6.9386 13.2701L13.3166 13.7422L16.0407 10.5718C16.2404 10.3395 16.5902 10.3408 16.7881 10.5748L19.4687 13.7422ZM20.8084 19.7696L16.6565 18.1543V19.7696H20.8084ZM16.1568 19.7696V18.1543L12.0049 19.7696H16.1568ZM15.6777 17.7684L11.4357 19.4168L8.31483 14.9009L15.6777 17.7684ZM17.127 17.7684L21.369 19.4168L24.4899 14.9009L17.127 17.7684ZM16.1608 17.3915V11.9562L12.6923 16.0323L16.1608 17.3915ZM16.6565 17.3915V11.9569L20.1251 16.0323L16.6565 17.3915ZM11.6752 15.6565L12.4732 14.723L8.57432 14.4321L11.6752 15.6565ZM21.1005 15.6565L20.3025 14.723L24.2014 14.4321L21.1005 15.6565Z" fill="white"/>
    <defs>
        <linearGradient id="paint0_linear_4974_51952" x1="16" y1="0" x2="16" y2="32" gradientUnits="userSpaceOnUse">
            <stop stop-color="#006CFF"/>
            <stop offset="0.27473" stop-color="#006CFF" stop-opacity="0.903844"/>
            <stop offset="1" stop-color="#006CFF" stop-opacity="0.65"/>
        </linearGradient>
        <clipPath id="clip0_4974_51952">
            <rect x="0.00390625" width="32" height="32" rx="16" fill="white"/>
        </clipPath>
    </defs>
</svg>
