<svg width="26" height="16" viewBox="0 0 26 16" fill="none"
    xmlns="http://www.w3.org/2000/svg">
    <g id="Ship Logo" clip-path="url(#clip0_1550_2394)">
        <g id="Vector">
            <path d="M0.123018 6.81664L0.123015 6.81664C-0.138413 6.4571 0.136059 5.9499 0.566445 5.9881L0.566446 5.9881L6.41647 6.50705C6.41647 6.50705 6.41647 6.50705 6.41648 6.50705C6.8079 6.54191 7.01153 7.00885 6.77414 7.33574C6.77414 7.33574 6.77414 7.33575 6.77414 7.33575L4.0378 11.1013L4.03779 11.1013C3.99106 11.1657 3.93053 11.218 3.86101 11.2539C3.7915 11.2898 3.71489 11.3085 3.63725 11.3085C3.5596 11.3085 3.48299 11.2898 3.41348 11.2539C3.34397 11.218 3.28343 11.1657 3.23671 11.1013L3.2367 11.1013L0.123018 6.81664Z" fill="#005FFF"/>
            <path d="M0.123018 6.81664L0.123015 6.81664C-0.138413 6.4571 0.136059 5.9499 0.566445 5.9881L0.566446 5.9881L6.41647 6.50705C6.41647 6.50705 6.41647 6.50705 6.41648 6.50705C6.8079 6.54191 7.01153 7.00885 6.77414 7.33574C6.77414 7.33574 6.77414 7.33575 6.77414 7.33575L4.0378 11.1013L4.03779 11.1013C3.99106 11.1657 3.93053 11.218 3.86101 11.2539C3.7915 11.2898 3.71489 11.3085 3.63725 11.3085C3.5596 11.3085 3.48299 11.2898 3.41348 11.2539C3.34397 11.218 3.28343 11.1657 3.23671 11.1013L3.2367 11.1013L0.123018 6.81664Z" fill="url(#paint0_linear_1550_2394)"/>
            <path d="M0.123018 6.81664L0.123015 6.81664C-0.138413 6.4571 0.136059 5.9499 0.566445 5.9881L0.566446 5.9881L6.41647 6.50705C6.41647 6.50705 6.41647 6.50705 6.41648 6.50705C6.8079 6.54191 7.01153 7.00885 6.77414 7.33574C6.77414 7.33574 6.77414 7.33575 6.77414 7.33575L4.0378 11.1013L4.03779 11.1013C3.99106 11.1657 3.93053 11.218 3.86101 11.2539C3.7915 11.2898 3.71489 11.3085 3.63725 11.3085C3.5596 11.3085 3.48299 11.2898 3.41348 11.2539C3.34397 11.218 3.28343 11.1657 3.23671 11.1013L3.2367 11.1013L0.123018 6.81664Z" stroke="#CCDFFF" stroke-width="0.0421674"/>
        </g>
        <g id="Vector_2">
            <path d="M19.8123 15.1775L19.8123 15.1775C19.7517 15.2611 19.6732 15.3288 19.5829 15.3755C19.4927 15.4221 19.3933 15.4464 19.2925 15.4464H14.3533C13.9412 15.4464 13.7036 14.9591 13.9527 14.6163L19.6145 6.82508C19.6687 6.75059 19.7371 6.68859 19.8156 6.64296C19.894 6.59733 19.9807 6.56907 20.0702 6.55992L20.0702 6.55992L25.426 6.00627C25.8587 5.96159 26.1394 6.47181 25.8759 6.83422L25.893 6.84662L25.8759 6.83422L19.8123 15.1775Z" fill="#005FFF"/>
            <path d="M19.8123 15.1775L19.8123 15.1775C19.7517 15.2611 19.6732 15.3288 19.5829 15.3755C19.4927 15.4221 19.3933 15.4464 19.2925 15.4464H14.3533C13.9412 15.4464 13.7036 14.9591 13.9527 14.6163L19.6145 6.82508C19.6687 6.75059 19.7371 6.68859 19.8156 6.64296C19.894 6.59733 19.9807 6.56907 20.0702 6.55992L20.0702 6.55992L25.426 6.00627C25.8587 5.96159 26.1394 6.47181 25.8759 6.83422L25.893 6.84662L25.8759 6.83422L19.8123 15.1775Z" fill="url(#paint1_linear_1550_2394)"/>
            <path d="M19.8123 15.1775L19.8123 15.1775C19.7517 15.2611 19.6732 15.3288 19.5829 15.3755C19.4927 15.4221 19.3933 15.4464 19.2925 15.4464H14.3533C13.9412 15.4464 13.7036 14.9591 13.9527 14.6163L19.6145 6.82508C19.6687 6.75059 19.7371 6.68859 19.8156 6.64296C19.894 6.59733 19.9807 6.56907 20.0702 6.55992L20.0702 6.55992L25.426 6.00627C25.8587 5.96159 26.1394 6.47181 25.8759 6.83422L25.893 6.84662L25.8759 6.83422L19.8123 15.1775Z" stroke="#CCDFFF" stroke-width="0.0421674"/>
        </g>
        <g id="Vector_3">
            <path d="M11.954 15.2105L11.954 15.2105C11.8931 15.2946 11.8139 15.3626 11.723 15.4093C11.6321 15.456 11.532 15.48 11.4306 15.4794L6.7148 15.4485C6.6149 15.4479 6.51647 15.4235 6.42714 15.3771C6.33781 15.3308 6.25996 15.2637 6.1997 15.181L6.19969 15.181L4.71109 13.141C4.62599 13.0244 4.57983 12.8823 4.57968 12.7361C4.57952 12.5898 4.62538 12.4476 4.71022 12.3308L13.0978 0.78876L13.0807 0.776365L13.0978 0.788759C13.1582 0.705633 13.2364 0.638177 13.3261 0.591631C13.4159 0.545086 13.5148 0.520702 13.6151 0.520355C13.7154 0.520008 13.8145 0.543708 13.9046 0.589629C13.9946 0.635553 14.0732 0.702466 14.1342 0.785171L18.0155 6.05161L18.0155 6.05162C18.1016 6.16823 18.1485 6.31081 18.149 6.45767C18.1495 6.60453 18.1036 6.74747 18.0184 6.86474L18.0354 6.87713L18.0184 6.86474L11.954 15.2105Z" fill="#005FFF"/>
            <path d="M11.954 15.2105L11.954 15.2105C11.8931 15.2946 11.8139 15.3626 11.723 15.4093C11.6321 15.456 11.532 15.48 11.4306 15.4794L6.7148 15.4485C6.6149 15.4479 6.51647 15.4235 6.42714 15.3771C6.33781 15.3308 6.25996 15.2637 6.1997 15.181L6.19969 15.181L4.71109 13.141C4.62599 13.0244 4.57983 12.8823 4.57968 12.7361C4.57952 12.5898 4.62538 12.4476 4.71022 12.3308L13.0978 0.78876L13.0807 0.776365L13.0978 0.788759C13.1582 0.705633 13.2364 0.638177 13.3261 0.591631C13.4159 0.545086 13.5148 0.520702 13.6151 0.520355C13.7154 0.520008 13.8145 0.543708 13.9046 0.589629C13.9946 0.635553 14.0732 0.702466 14.1342 0.785171L18.0155 6.05161L18.0155 6.05162C18.1016 6.16823 18.1485 6.31081 18.149 6.45767C18.1495 6.60453 18.1036 6.74747 18.0184 6.86474L18.0354 6.87713L18.0184 6.86474L11.954 15.2105Z" fill="url(#paint2_linear_1550_2394)"/>
            <path d="M11.954 15.2105L11.954 15.2105C11.8931 15.2946 11.8139 15.3626 11.723 15.4093C11.6321 15.456 11.532 15.48 11.4306 15.4794L6.7148 15.4485C6.6149 15.4479 6.51647 15.4235 6.42714 15.3771C6.33781 15.3308 6.25996 15.2637 6.1997 15.181L6.19969 15.181L4.71109 13.141C4.62599 13.0244 4.57983 12.8823 4.57968 12.7361C4.57952 12.5898 4.62538 12.4476 4.71022 12.3308L13.0978 0.78876L13.0807 0.776365L13.0978 0.788759C13.1582 0.705633 13.2364 0.638177 13.3261 0.591631C13.4159 0.545086 13.5148 0.520702 13.6151 0.520355C13.7154 0.520008 13.8145 0.543708 13.9046 0.589629C13.9946 0.635553 14.0732 0.702466 14.1342 0.785171L18.0155 6.05161L18.0155 6.05162C18.1016 6.16823 18.1485 6.31081 18.149 6.45767C18.1495 6.60453 18.1036 6.74747 18.0184 6.86474L18.0354 6.87713L18.0184 6.86474L11.954 15.2105Z" stroke="#CCDFFF" stroke-width="0.0421674"/>
        </g>
    </g>
    <defs>
        <linearGradient id="paint0_linear_1550_2394" x1="-26.4283" y1="-19.2678" x2="-34.1761" y2="-4.26592" gradientUnits="userSpaceOnUse">
            <stop offset="0.177786" stop-color="#B38AF8"/>
            <stop offset="0.563822" stop-color="#005FFF"/>
            <stop offset="1" stop-color="#00ECBB"/>
        </linearGradient>
        <linearGradient id="paint1_linear_1550_2394" x1="-32.8022" y1="-38.6307" x2="-47.621" y2="-10.0681" gradientUnits="userSpaceOnUse">
            <stop offset="0.177786" stop-color="#B38AF8"/>
            <stop offset="0.563822" stop-color="#005FFF"/>
            <stop offset="1" stop-color="#00ECBB"/>
        </linearGradient>
        <linearGradient id="paint2_linear_1550_2394" x1="-47.6017" y1="-70.0592" x2="-74.6177" y2="-34.5635" gradientUnits="userSpaceOnUse">
            <stop offset="0.177786" stop-color="#B38AF8"/>
            <stop offset="0.563822" stop-color="#005FFF"/>
            <stop offset="1" stop-color="#00ECBB"/>
        </linearGradient>
        <clipPath id="clip0_1550_2394">
            <rect width="26" height="15" fill="white" transform="translate(0 0.5)"/>
        </clipPath>
    </defs>
</svg>
