<svg width="45" height="45" viewBox="0 0 45 45" fill="none" xmlns="http://www.w3.org/2000/svg">
<g filter="url(#filter0_d_6701_33474)">
<g clip-path="url(#clip0_6701_33474)">
<rect width="33" height="33" transform="translate(6 6)" fill="url(#paint0_linear_6701_33474)"/>
</g>
<path fill-rule="evenodd" clip-rule="evenodd" d="M26.0762 20.1728L32.6737 19.686C33.1091 19.6538 33.3833 20.1647 33.1287 20.5339L28.5135 27.226C28.4168 27.3664 28.2609 27.4496 28.095 27.4496H17.7454C17.5797 27.4496 17.4241 27.3666 17.3272 27.2266L12.6998 20.5344C12.4446 20.1653 12.7187 19.6537 13.1546 19.686L19.7319 20.1729L22.5412 16.9034C22.747 16.6638 23.1077 16.6652 23.3119 16.9064L26.0762 20.1728ZM27.4578 26.3886L23.1762 24.7228V26.3886H27.4578ZM22.6609 26.3886V24.7228L18.3792 26.3886H22.6609ZM22.1668 24.3249L17.7922 26.0248L14.5738 21.3677L22.1668 24.3249ZM23.6613 24.3249L28.036 26.0248L31.2543 21.3677L23.6613 24.3249ZM22.665 23.9362V18.3311L19.0881 22.5345L22.665 23.9362ZM23.1762 23.9362V18.3318L26.7531 22.5345L23.1762 23.9362ZM18.0392 22.147L18.8621 21.1843L14.8414 20.8844L18.0392 22.147ZM27.759 22.147L26.9361 21.1843L30.9568 20.8844L27.759 22.147Z" fill="white"/>
</g>
<defs>
<filter id="filter0_d_6701_33474" x="-4" y="-4" width="52" height="52" filterUnits="userSpaceOnUse" color-interpolation-filters="sRGB">
<feFlood flood-opacity="0" result="BackgroundImageFix"/>
<feColorMatrix in="SourceAlpha" type="matrix" values="0 0 0 0 0 0 0 0 0 0 0 0 0 0 0 0 0 0 127 0" result="hardAlpha"/>
<feOffset/>
<feGaussianBlur stdDeviation="3"/>
<feColorMatrix type="matrix" values="0 0 0 0 0 0 0 0 0 0 0 0 0 0 0 0 0 0 0.05 0"/>
<feBlend mode="normal" in2="BackgroundImageFix" result="effect1_dropShadow_6701_33474"/>
<feBlend mode="normal" in="SourceGraphic" in2="effect1_dropShadow_6701_33474" result="shape"/>
</filter>
<linearGradient id="paint0_linear_6701_33474" x1="16.5" y1="0" x2="16.5" y2="33" gradientUnits="userSpaceOnUse">
<stop stop-color="#006CFF"/>
<stop offset="0.27473" stop-color="#006CFF" stop-opacity="0.903844"/>
<stop offset="1" stop-color="#006CFF" stop-opacity="0.65"/>
</linearGradient>
<clipPath id="clip0_6701_33474">
<rect x="6" y="6" width="33" height="33" rx="16.5" fill="white"/>
</clipPath>
</defs>
</svg>
